<svg fill="none" height="42" viewBox="0 0 42 42" width="42" xmlns="http://www.w3.org/2000/svg">
  <rect fill="#262626" height="42" rx="8" width="42" />
  <path clip-rule="evenodd"
        d="M10.1004 5C7.87512 5 6.22853 6.94344 6.30223 9.05111C6.37296 11.076 6.28108 13.6985 5.6194 15.8371C4.95574 17.9821 3.83333 19.3408 2 19.5153V21.4847C3.83333 21.6592 4.95574 23.0179 5.6194 25.1629C6.28108 27.3015 6.37296 29.924 6.30223 31.9489C6.22853 34.0562 7.87512 36 10.1008 36H32.9025C35.1279 36 36.7741 34.0566 36.7004 31.9489C36.6297 29.924 36.7216 27.3015 37.3832 25.1629C38.0472 23.0179 39.1667 21.6592 41 21.4847V19.5153C39.1667 19.3408 38.0472 17.9821 37.3832 15.8371C36.7216 13.6988 36.6297 11.076 36.7004 9.05111C36.7741 6.94377 35.1279 5 32.9025 5H10.1001H10.1004ZM28.4407 24.0825C28.4407 26.9846 26.2712 28.7447 22.671 28.7447H16.5424C16.3671 28.7447 16.1989 28.6752 16.075 28.5515C15.951 28.4278 15.8814 28.26 15.8814 28.0851V12.9149C15.8814 12.74 15.951 12.5722 16.075 12.4485C16.1989 12.3248 16.3671 12.2553 16.5424 12.2553H22.636C25.638 12.2553 27.6081 13.8779 27.6081 16.3691C27.6081 18.1176 26.2828 19.6831 24.5942 19.9572V20.0485C26.8929 20.3001 28.4407 21.8884 28.4407 24.0825ZM22.0027 14.3462H18.5082V19.2712H21.4514C23.7266 19.2712 24.9812 18.357 24.9812 16.7229C24.9812 15.1917 23.9025 14.3462 22.0027 14.3462ZM18.5082 21.2255V26.6532H22.1313C24.5 26.6532 25.755 25.7047 25.755 23.9222C25.755 22.1394 24.465 21.2252 21.9789 21.2252L18.5082 21.2255Z"
        fill="#712CF9"
        fill-rule="evenodd" />
</svg>
