<svg fill="none" height="42" viewBox="0 0 42 42" width="42" xmlns="http://www.w3.org/2000/svg">
  <rect fill="#262626" height="42" rx="8" width="42" />
  <path
    d="M3.74999 22.7481C2.75 21.7482 2.75 20.1268 3.74999 19.1269L19.1269 3.74999C20.1268 2.75 21.7482 2.75 22.7481 3.74999L38.125 19.1269C39.125 20.1268 39.125 21.7482 38.125 22.7481L22.7481 38.125C21.7482 39.125 20.1268 39.125 19.1269 38.125L3.74999 22.7481Z"
    fill="#EE513B" />
  <path
    d="M3.74999 22.7481C2.75 21.7482 2.75 20.1268 3.74999 19.1269L19.1269 3.74999C20.1268 2.75 21.7482 2.75 22.7481 3.74999L38.125 19.1269C39.125 20.1268 39.125 21.7482 38.125 22.7481L22.7481 38.125C21.7482 39.125 20.1268 39.125 19.1269 38.125L3.74999 22.7481Z"
    fill="#EE513B" />
  <path
    d="M16.0038 6.92273L14.4467 8.47988L18.4684 12.5016C18.3057 12.8506 18.2149 13.2399 18.2149 13.6504C18.2149 14.8158 18.9471 15.8102 19.9766 16.1986V26.0367C18.9471 26.4251 18.2149 27.4195 18.2149 28.585C18.2149 30.0886 19.4338 31.3076 20.9375 31.3076C22.4412 31.3076 23.6602 30.0886 23.6602 28.585C23.6602 27.5284 23.0583 26.6124 22.1787 26.161V16.212L26.0232 20.0564C25.8684 20.3983 25.7823 20.778 25.7823 21.1777C25.7823 22.6814 27.0012 23.9004 28.5049 23.9004C30.0086 23.9004 31.2276 22.6814 31.2276 21.1777C31.2276 19.6741 30.0086 18.4551 28.5049 18.4551C28.2127 18.4551 27.9312 18.5011 27.6674 18.5863L23.5386 14.4575C23.6176 14.2025 23.6602 13.9314 23.6602 13.6504C23.6602 12.1467 22.4412 10.9277 20.9375 10.9277C20.6565 10.9277 20.3855 10.9703 20.1304 11.0494L16.0038 6.92273Z"
    fill="white" />
</svg>
