<svg fill="none" height="42" viewBox="0 0 42 42" width="42" xmlns="http://www.w3.org/2000/svg">
  <rect fill="#262626" height="42" rx="8" width="42" />
  <path
    d="M22.3684 27.5134L25.949 25.257C26.2296 26.0966 28.0065 28.0906 30.251 28.0906C32.4955 28.0906 33.5377 26.9231 33.5377 26.1491C33.5377 24.0397 31.2457 23.296 30.1449 22.9388C29.9655 22.8806 29.8177 22.8326 29.7166 22.7907C29.6648 22.7692 29.5864 22.7407 29.4858 22.7041C28.2615 22.2586 23.7445 20.615 23.7445 15.8509C23.7445 10.6035 29.0619 10 30.2644 10C31.0511 10 34.8336 10.0918 36.7174 13.4633L33.2437 15.7722C32.4822 14.3029 31.2169 13.8175 30.4381 13.8175C28.5142 13.8175 28.1134 15.1608 28.1134 15.7722C28.1134 17.4879 30.2036 18.2569 31.9685 18.9062C32.4303 19.0761 32.8698 19.2378 33.2437 19.4061C35.1676 20.2719 38 21.6887 38 26.1491C38 28.3831 36.0325 32 31.0794 32C24.4259 32 22.6623 28.1956 22.3684 27.5134Z"
    fill="#FFCA28" />
  <path
    d="M5 27.9615L8.73191 25.7062C9.02433 26.5454 10.1606 28.0926 11.8093 28.0926C13.4581 28.0926 14.3019 26.4798 14.3019 25.7062V10.4963H18.8916V25.7062C18.9659 27.8041 17.7442 32 12.3524 32C7.39511 32 5.3342 29.194 5 27.9615Z"
    fill="#FFCA28" />
</svg>
