<svg fill="none" height="42" viewBox="0 0 42 42" width="42" xmlns="http://www.w3.org/2000/svg">
  <rect fill="#262626" height="42" rx="8" width="42" />
  <path
    d="M24.804 20.9703C24.804 19.2049 23.3248 17.7736 21.5 17.7736C19.6754 17.7736 18.196 19.2049 18.196 20.9703C18.196 22.736 19.6754 24.1673 21.5 24.1673C23.3248 24.1673 24.804 22.736 24.804 20.9703Z"
    fill="#53C1DE" />
  <path clip-rule="evenodd"
        d="M32.2305 15.0353C32.9282 12.292 33.8053 7.2049 30.7135 5.4802C27.6362 3.76301 23.6317 7.05345 21.5172 9.02853C19.4088 7.07313 15.2918 3.79676 12.2027 5.52694C9.12659 7.24988 10.0752 12.2527 10.7884 15.0131C7.91892 15.8017 3 17.5002 3 20.9703C3 24.4307 7.9138 26.2785 10.7663 27.0663C10.0504 29.8421 9.14935 34.7735 12.2294 36.4925C15.33 38.2224 19.4342 35.024 21.5683 33.0273C23.6964 35.014 27.6625 38.2333 30.7403 36.5094C33.828 34.7801 33.0237 29.7611 32.3105 26.9846C35.0756 26.1951 40 24.3875 40 20.9703C40 17.5335 35.0547 15.8213 32.2305 15.0353ZM31.88 25.5132C31.4117 24.0789 30.7796 22.5536 30.0064 20.9779C30.7444 19.4395 31.3519 17.9339 31.8072 16.5088C33.8776 17.0896 38.4195 18.417 38.4195 20.9703C38.4195 23.5476 34.0611 24.8876 31.88 25.5132ZM29.9483 35.1859C27.6519 36.472 24.2406 33.3934 22.669 31.9303C23.7116 30.827 24.7535 29.5443 25.7704 28.1199C27.5592 27.9664 29.2491 27.7153 30.7816 27.3726C31.2836 29.3365 32.2549 33.8939 29.9483 35.1859ZM13.0191 35.1675C10.7224 33.8862 11.7722 29.4857 12.2988 27.441C13.8143 27.7654 15.4919 27.9987 17.2849 28.1394C18.3085 29.5332 19.3806 30.8143 20.461 31.9362C19.1262 33.1856 15.3266 36.4548 13.0191 35.1675ZM4.5805 20.9703C4.5805 18.3833 9.09521 17.0656 11.2128 16.4863C11.6759 17.9434 12.2832 19.4669 13.0162 21.0076C12.2737 22.5712 11.6577 24.1189 11.1904 25.5932C9.17122 25.034 4.5805 23.5589 4.5805 20.9703ZM12.9946 6.85051C15.3007 5.55897 18.8788 8.7044 20.4096 10.1202C19.3348 11.237 18.2725 12.5084 17.2578 13.8941C15.5176 14.0502 13.8518 14.3008 12.3204 14.6365C11.7459 12.4101 10.691 8.14066 12.9946 6.85051ZM26.9011 15.5564C28.0817 15.7006 29.2127 15.8923 30.2748 16.127C29.956 17.1158 29.5586 18.1497 29.0906 19.2096C28.4121 17.964 27.6838 16.7435 26.9011 15.5564ZM21.5177 11.2131C22.2467 11.9772 22.9768 12.8305 23.6951 13.7563C22.2382 13.6897 20.7789 13.6893 19.322 13.7553C20.0408 12.8381 20.7772 11.9861 21.5177 11.2131ZM13.923 19.2085C13.4627 18.1522 13.0689 17.1137 12.7473 16.1108C13.803 15.8822 14.9288 15.6954 16.1017 15.5536C15.3168 16.738 14.5898 17.9581 13.923 19.2085ZM16.1354 26.4963C14.9237 26.3654 13.7809 26.1881 12.7255 25.9658C13.0522 24.9452 13.4547 23.8843 13.9248 22.8054C14.6008 24.0687 15.3389 25.3006 16.1354 26.4963ZM21.5614 30.8357C20.8123 30.0535 20.0651 29.1884 19.3352 28.2579C20.8005 28.3136 22.2685 28.3138 23.7335 28.2505C23.013 29.1979 22.2855 30.0643 21.5614 30.8357ZM29.1056 22.7504C29.6002 23.841 30.0171 24.8962 30.3482 25.8996C29.2753 26.1365 28.1171 26.3272 26.8967 26.4689C27.6852 25.2594 28.425 24.0198 29.1056 22.7504ZM24.8883 26.6542C22.6472 26.8092 20.3919 26.8075 18.15 26.6669C16.8761 24.8664 15.7421 22.9729 14.7632 21.0071C15.7373 19.0454 16.8631 17.1556 18.131 15.3579C20.3746 15.1938 22.632 15.1934 24.8755 15.3589C26.1325 17.1565 27.2566 19.0413 28.2533 20.9854C27.2684 22.9462 26.1368 24.8397 24.8883 26.6542ZM29.9241 6.80504C32.2307 8.09235 31.204 12.6643 30.7001 14.6524C29.1651 14.3097 27.4981 14.0546 25.7529 13.8962C24.7362 12.4954 23.6828 11.2218 22.6253 10.1194C24.1757 8.67312 27.6396 5.53032 29.9241 6.80504Z"
        fill="#53C1DE"
        fill-rule="evenodd" />
</svg>
