<svg fill="none" height="42" viewBox="0 0 42 42" width="42" xmlns="http://www.w3.org/2000/svg">
  <rect fill="#262626" height="42" rx="8" width="42" />
  <path clip-rule="evenodd"
        d="M20.5003 10C15.8333 10 12.9171 12.5557 11.7498 17.6672C13.5001 15.1114 15.5418 14.1532 17.875 14.7918C19.2062 15.156 20.1581 16.214 21.2109 17.3853C22.9268 19.2926 24.913 21.5 29.2502 21.5C33.9166 21.5 36.8334 18.9443 38 13.8336C36.2504 16.3893 34.2087 17.3475 31.8755 16.7082C30.5436 16.344 29.5917 15.286 28.539 14.1155C26.823 12.2066 24.8375 10 20.5003 10ZM11.7498 21.5C7.08344 21.5 4.1666 24.0557 3 29.1672C4.75024 26.6114 6.79196 25.6532 9.12447 26.2918C10.4564 26.656 11.4083 27.714 12.461 28.8853C14.177 30.7926 16.1625 33 20.5003 33C25.1667 33 28.0836 30.445 29.2502 25.3336C27.4999 27.8893 25.4582 28.8475 23.125 28.209C21.7938 27.844 20.8419 26.786 19.7891 25.6155C18.0732 23.7081 16.087 21.5 11.7498 21.5Z"
        fill="#38BDF8"
        fill-rule="evenodd" />
</svg>
