<svg fill="none" height="48" viewBox="0 0 48 48" width="48" xmlns="http://www.w3.org/2000/svg">
  <g clip-path="url(#clip0_202_100)">
    <path
      d="M6.44571 43.4058L0 5.00575L12 0.0686035L19.6114 4.59432L26.6057 0.822889L41.2114 6.44575L32.9829 48L6.44571 43.4058Z"
      fill="url(#paint0_linear_202_100)" />
    <path
      d="M48 16.2514L41.8285 0.96L30.5828 0L13.2343 16.6629L17.8971 38.1257L26.6057 44.2971L48 31.5429L42.72 21.7371L48 16.2514Z"
      fill="url(#paint1_linear_202_100)" />
    <path d="M38.4 13.9885L42.72 21.7371L48 16.2514L44.16 6.71997L38.4 13.9885Z" fill="url(#paint2_linear_202_100)" />
    <path d="M9.1886 9.18854H38.8115V38.8114H9.1886V9.18854Z" fill="black" />
    <path d="M12 33.2571H23.1086V35.1086H12V33.2571Z" fill="white" />
    <path
      d="M26.5372 23.52L28.1144 21.6C29.2115 22.4914 30.3772 23.1086 31.7487 23.1086C32.8458 23.1086 33.4629 22.6972 33.4629 21.9429V21.8743C33.4629 21.1886 33.0515 20.8457 30.9944 20.2972C28.5258 19.68 27.0172 18.9943 27.0172 16.5257V16.4572C27.0172 14.1943 28.8001 12.7543 31.2687 12.7543C33.0515 12.7543 34.5601 13.3029 35.7944 14.3314L34.4229 16.3886C33.3258 15.6343 32.2972 15.1543 31.2687 15.1543C30.2401 15.1543 29.6915 15.6343 29.6915 16.2514V16.32C29.6915 17.1429 30.2401 17.4172 32.2972 17.9657C34.7658 18.6514 36.1372 19.5429 36.1372 21.6686V21.7372C36.1372 24.2057 34.2858 25.5772 31.6801 25.5772C29.8287 25.5086 27.9772 24.8229 26.5372 23.52Z"
      fill="white" />
    <path
      d="M24.1372 13.0286L22.2858 20.16L20.2286 13.0286H18.1715L16.0458 20.16L14.1944 13.0286H11.3829L14.8801 25.3029H17.1429L19.2001 18.1714L21.1886 25.3029H23.5201L27.0172 13.0286H24.1372Z"
      fill="white" />
  </g>
  <defs>
    <linearGradient gradientUnits="userSpaceOnUse" id="paint0_linear_202_100" x1="17.1895" x2="29.6112" y1="1.00118"
                    y2="45.72">
      <stop offset="0.285" stop-color="#00CDD7" />
      <stop offset="0.941" stop-color="#2086D7" />
    </linearGradient>
    <linearGradient gradientUnits="userSpaceOnUse" id="paint1_linear_202_100" x1="21.0651" x2="42.0788" y1="6.67474"
                    y2="37.4887">
      <stop offset="0.14" stop-color="#FFF045" />
      <stop offset="0.366" stop-color="#00CDD7" />
    </linearGradient>
    <linearGradient gradientUnits="userSpaceOnUse" id="paint2_linear_202_100" x1="41.8848" x2="44.6441" y1="10.4845"
                    y2="20.2587">
      <stop offset="0.285" stop-color="#00CDD7" />
      <stop offset="0.941" stop-color="#2086D7" />
    </linearGradient>
    <clipPath id="clip0_202_100">
      <rect fill="white" height="48" width="48" />
    </clipPath>
  </defs>
</svg>
